<svg xmlns="http://www.w3.org/2000/svg" viewBox="0 0 600 600">
  <rect width="600" height="600" fill="#F4EFE7"/>
  <ellipse cx="300" cy="420" rx="190" ry="30" fill="#9E3B39" opacity=".12"/>
  <path d="M110 410a190 190 0 0 1 380 0z" fill="#7FA86B"/>
  <path d="M132 410a168 168 0 0 1 336 0z" fill="#FAF5EC"/>
  <path d="M150 410a150 150 0 0 1 300 0z" fill="#E05A5A"/>
  <ellipse cx="245" cy="340" rx="10" ry="15" fill="#3A2A20" transform="rotate(-15 245 340)"/>
  <ellipse cx="310" cy="300" rx="10" ry="15" fill="#3A2A20"/>
  <ellipse cx="365" cy="345" rx="10" ry="15" fill="#3A2A20" transform="rotate(18 365 345)"/>
  <ellipse cx="290" cy="375" rx="10" ry="15" fill="#3A2A20" transform="rotate(-8 290 375)"/>
  <text x="300" y="490" text-anchor="middle" font-family="Georgia, 'Times New Roman', serif" font-size="34" letter-spacing="6" fill="#5C4A39">ORGANIC WATERMELON</text>
  <text x="300" y="528" text-anchor="middle" font-family="Helvetica, Arial, sans-serif" font-size="17" letter-spacing="4" fill="#8A7460">HANDMADE SOAP · SOFT RITUALS</text>
</svg>
